<svg width="150" height="30" xmlns="http://www.w3.org/2000/svg" viewBox="0 -5 150 43" fill="none" color="black">

    <rect x="0" y="-2" width="150" height="37" fill="white" rx="5" ry="5" />

    <path d="M142.533 18.1317C138.923 18.1317 137.613 16.8979 137.613 12.7549V12.2675C137.613 8.1244 138.923 6.89062 142.533 6.89062C146.174 6.89062 147.407 7.97208 147.407 11.0489L146.036 11.0946C146.036 8.8403 145.351 8.21579 142.594 8.21579C139.837 8.21579 139.06 9.14493 139.06 12.4198V12.6026C139.06 15.984 139.837 16.8065 142.594 16.8065C145.351 16.8065 146.036 16.182 146.036 13.9277L147.407 13.9734C147.407 17.0502 146.174 18.1317 142.533 18.1317Z" fill="currentcolor"></path>
    <path d="M131.001 18.1317C127.345 18.1317 126.035 16.8979 126.035 12.7549V12.2675C126.035 8.1244 127.345 6.89062 130.955 6.89062C134.611 6.89062 135.829 7.85023 135.829 10.592L134.458 10.6224C134.428 8.73367 133.773 8.21579 131.016 8.21579C128.259 8.21579 127.482 9.14493 127.482 12.4198V12.6026C127.482 15.984 128.259 16.8065 131.062 16.8065C133.864 16.8065 134.458 16.3191 134.428 13.6992H130.422V12.4198H135.844C135.829 12.9072 135.829 13.3337 135.829 13.7602C135.829 17.2178 134.656 18.1317 131.001 18.1317Z" fill="currentcolor"></path>
    <path d="M113.83 17.9161C113.845 17.2307 113.845 16.6976 113.845 15.8446V9.06647C113.845 8.25918 113.845 7.75653 113.83 7.10156H117.47L119.527 11.2598C120.288 12.9353 121.065 14.7022 121.568 15.8446H121.72C121.705 14.23 121.674 11.991 121.674 11.0618C121.674 9.90422 121.674 8.30488 121.659 7.10156H123.853C123.837 7.66514 123.837 8.25918 123.837 9.036V15.7989C123.837 16.6671 123.837 17.2155 123.853 17.9161H120.288L118.186 13.6817C117.394 11.9757 116.663 10.4373 116.069 9.14262H115.947C115.963 10.6201 115.993 12.783 115.993 14.0473C115.993 15.1135 115.993 16.6976 116.008 17.9161H113.83Z" fill="currentcolor"></path>
    <path d="M106.418 18.1317C102.397 18.1317 101.057 16.8522 101.057 12.7549V12.2675C101.057 8.15487 102.397 6.89062 106.418 6.89062C110.455 6.89062 111.78 8.15487 111.78 12.2675V12.7549C111.78 16.8522 110.455 18.1317 106.418 18.1317ZM106.418 16.0754C108.825 16.0754 109.419 15.4204 109.419 12.5721V12.4502C109.419 9.60189 108.825 8.96215 106.418 8.96215C104.027 8.96215 103.418 9.66281 103.418 12.4502V12.5721C103.418 15.4204 104.027 16.0754 106.418 16.0754Z" fill="currentcolor"></path>
    <path d="M94.3772 18.1317C90.4322 18.1317 89.0918 16.8522 89.0918 12.7549V12.2675C89.0918 8.15487 90.4322 6.89062 94.362 6.89062C98.3223 6.89062 99.5561 7.74361 99.5256 10.7138L97.2713 10.7595H97.256C97.256 9.37341 96.8143 8.96215 94.4382 8.96215C92.062 8.96215 91.4527 9.66281 91.4527 12.4502V12.5721C91.4527 15.4661 92.062 16.1211 94.4229 16.1211C96.8905 16.1211 97.3322 15.786 97.317 14.0039V13.9886H93.6156V12.2218H99.5561C99.5408 12.7244 99.5408 13.3032 99.5408 13.684C99.5408 17.3092 98.3527 18.1317 94.3772 18.1317Z" fill="currentcolor"></path>
    <path d="M81.1786 7.10156H84.8038C85.5806 9.40157 87.8349 15.8446 88.5965 17.9161H86.0528L85.3978 15.8751H80.417L79.7468 17.9161H77.2793C78.0714 15.8446 80.3866 9.40157 81.1786 7.10156ZM81.3919 12.9353L81.0568 13.9559H84.7733L84.4382 12.9049C84.027 11.5949 83.6157 10.2545 83.2654 9.17309H82.58C82.2296 10.2698 81.8031 11.6102 81.3919 12.9353Z" fill="currentcolor"></path>
    <path d="M66.5602 15.8142V9.06647C66.5602 8.27441 66.5602 7.66514 66.5449 7.10156H72.4701C75.2575 7.10156 76.3999 7.96978 76.3999 10.6049V10.6658C76.3999 12.4632 75.8668 13.5142 74.3131 13.9559C74.6025 14.4433 74.892 14.9612 75.2118 15.5095C75.6535 16.3016 76.141 17.1241 76.6436 17.9161H74.039C73.7343 17.3678 73.3992 16.7738 73.0641 16.1645L72.0131 14.3519H68.8602V15.8142C68.8602 16.6824 68.8602 17.3069 68.8754 17.9161H66.5449C66.5602 17.3221 66.5602 16.6824 66.5602 15.8142ZM72.135 9.06647H68.8602V12.4022H72.1045C73.5211 12.4022 74.039 11.93 74.039 10.6963V10.6658C74.039 9.44726 73.5211 9.06647 72.135 9.06647Z" fill="currentcolor"></path>
    <path d="M54.2555 15.7837V9.05123C54.2555 8.27441 54.2555 7.66514 54.2402 7.10156H59.2058C63.1661 7.10156 64.4912 8.35057 64.4912 12.3565V12.6612C64.4912 16.6671 63.1661 17.9161 59.1906 17.9161H54.2402C54.2555 17.3069 54.2555 16.6671 54.2555 15.7837ZM59.2058 9.11216H56.5555V15.9055H59.1906C61.521 15.9055 62.1303 15.2506 62.1303 12.5698V12.4479C62.1303 9.76713 61.521 9.11216 59.2058 9.11216Z" fill="currentcolor"></path>
    <path d="M145.646 28.1862C144.131 28.1862 143.543 27.6888 143.543 26.0157V25.7896C143.543 24.1165 144.131 23.6191 145.6 23.6191C147.078 23.6191 147.628 24.1165 147.628 25.7896V26.174H144.455C144.493 27.1462 144.802 27.4024 145.653 27.4024C146.55 27.4024 146.738 27.1613 146.738 26.6111L147.628 26.6413C147.628 27.7491 147.183 28.1862 145.646 28.1862ZM145.608 24.3426C144.817 24.3426 144.508 24.5763 144.455 25.5033H146.686C146.656 24.5763 146.407 24.3426 145.608 24.3426Z" fill="currentcolor"></path>
    <path d="M141.153 28.1862C139.668 28.1862 139.096 27.6888 139.096 26.0157V25.7896C139.096 24.1165 139.661 23.6191 141.153 23.6191C142.653 23.6191 143.158 24.0713 143.158 25.4505L142.276 25.4806C142.276 24.727 142.012 24.4255 141.161 24.4255C140.286 24.4255 140 24.6969 140 25.8725V25.9328C140 27.101 140.286 27.3798 141.161 27.3798C142.02 27.3798 142.291 27.0859 142.291 26.3247L143.173 26.3473C143.173 27.6888 142.645 28.1862 141.153 28.1862Z" fill="currentcolor"></path>
    <path d="M134.551 27.101V24.6516C134.551 24.2823 134.551 24.0186 134.543 23.7096H135.387L135.402 24.4255C135.673 23.8302 136.178 23.6191 136.94 23.6191C137.995 23.6191 138.454 24.0336 138.454 25.149C138.454 25.3751 138.447 25.6841 138.447 26.3172V27.1161C138.447 27.4477 138.447 27.7265 138.454 28.0958H137.55C137.558 27.7567 137.558 27.5532 137.558 27.1161V25.6691C137.558 24.6667 137.309 24.4406 136.525 24.4406C135.741 24.4406 135.447 24.6667 135.447 25.8273V27.1236C135.447 27.523 135.447 27.7717 135.455 28.0958H134.543C134.551 27.7642 134.551 27.5004 134.551 27.101Z" fill="currentcolor"></path>
    <path d="M131.9 28.1862C130.385 28.1862 129.797 27.6888 129.797 26.0157V25.7896C129.797 24.1165 130.385 23.6191 131.854 23.6191C133.331 23.6191 133.882 24.1165 133.882 25.7896V26.174H130.709C130.746 27.1462 131.055 27.4024 131.907 27.4024C132.804 27.4024 132.992 27.1613 132.992 26.6111L133.882 26.6413C133.882 27.7491 133.437 28.1862 131.9 28.1862ZM131.862 24.3426C131.071 24.3426 130.762 24.5763 130.709 25.5033H132.94C132.909 24.5763 132.661 24.3426 131.862 24.3426Z" fill="currentcolor"></path>
    <path d="M126.817 27.6059C125.581 27.6059 124.963 27.2442 124.963 25.6464V25.5786C124.963 23.9884 125.573 23.6191 126.817 23.6191C127.563 23.6191 128.03 23.8905 128.286 24.3803L128.302 23.7096H129.138C129.131 23.996 129.131 24.2974 129.131 24.6742V25.8349C129.131 26.5357 129.138 26.9729 129.138 27.5607C129.138 28.8118 128.565 29.2413 126.975 29.2413C125.445 29.2413 125.091 28.955 125.083 27.8772L125.943 27.8471C125.943 28.3068 126.093 28.4877 126.975 28.4877C127.993 28.4877 128.241 28.2691 128.256 27.4401L128.264 26.8674C128 27.3421 127.548 27.6059 126.817 27.6059ZM127.073 26.8146C127.917 26.8146 128.241 26.5357 128.241 25.5786C128.241 24.6366 127.917 24.4105 127.066 24.4105C126.176 24.4105 125.867 24.6893 125.867 25.5786V25.6389C125.867 26.5282 126.176 26.8146 127.073 26.8146Z" fill="currentcolor"></path>
    <path d="M123.375 22.5059H124.287V23.252H123.375V22.5059ZM123.383 27.0805V24.7291C123.383 24.3071 123.383 23.983 123.375 23.7117H124.287C124.279 23.983 124.279 24.3071 124.279 24.7216V27.073C124.279 27.495 124.279 27.7889 124.287 28.0979H123.375C123.383 27.7965 123.383 27.495 123.383 27.0805Z" fill="currentcolor"></path>
    <path d="M121.514 27.0429V22.8288C121.514 22.344 121.514 21.956 121.506 21.6387H122.448C122.44 21.956 122.44 22.3351 122.44 22.82V27.0341C122.44 27.5278 122.44 27.8716 122.448 28.2331H121.506C121.514 27.8804 121.514 27.5278 121.514 27.0429Z" fill="currentcolor"></path>
    <path d="M119.639 27.0429V22.8288C119.639 22.344 119.639 21.956 119.631 21.6387H120.573C120.565 21.956 120.565 22.3351 120.565 22.82V27.0341C120.565 27.5278 120.565 27.8716 120.573 28.2331H119.631C119.639 27.8804 119.639 27.5278 119.639 27.0429Z" fill="currentcolor"></path>
    <path d="M116.999 28.1862C115.484 28.1862 114.896 27.6888 114.896 26.0157V25.7896C114.896 24.1165 115.484 23.6191 116.954 23.6191C118.431 23.6191 118.981 24.1165 118.981 25.7896V26.174H115.808C115.846 27.1462 116.155 27.4024 117.007 27.4024C117.904 27.4024 118.092 27.1613 118.092 26.6111L118.981 26.6413C118.981 27.7491 118.537 28.1862 116.999 28.1862ZM116.961 24.3426C116.17 24.3426 115.861 24.5763 115.808 25.5033H118.039C118.009 24.5763 117.76 24.3426 116.961 24.3426Z" fill="currentcolor"></path>
    <path d="M112.484 25.1094V24.4839H111.791V23.7076H112.484C112.484 23.3911 112.477 22.4691 112.477 22.2355L113.381 22.2129C113.374 22.4917 113.374 23.3459 113.374 23.7076H114.549V24.4839H113.374V26.6921C113.374 27.2196 113.457 27.3327 114.09 27.3327C114.263 27.3327 114.353 27.3251 114.549 27.3176L114.557 28.0938C114.346 28.1164 114.165 28.124 113.939 28.124C112.733 28.124 112.477 27.8225 112.477 26.8729C112.477 26.4961 112.484 25.7877 112.484 25.1094Z" fill="currentcolor"></path>
    <path d="M107.492 27.101V24.6516C107.492 24.2823 107.492 24.0186 107.484 23.7096H108.328L108.344 24.4255C108.615 23.8302 109.12 23.6191 109.881 23.6191C110.936 23.6191 111.396 24.0336 111.396 25.149C111.396 25.3751 111.388 25.6841 111.388 26.3172V27.1161C111.388 27.4477 111.388 27.7265 111.396 28.0958H110.491C110.499 27.7567 110.499 27.5532 110.499 27.1161V25.6691C110.499 24.6667 110.25 24.4406 109.466 24.4406C108.683 24.4406 108.389 24.6667 108.389 25.8273V27.1236C108.389 27.523 108.389 27.7717 108.396 28.0958H107.484C107.492 27.7642 107.492 27.5004 107.492 27.101Z" fill="currentcolor"></path>
    <path d="M105.505 27.059V23.105C105.505 22.645 105.505 22.3001 105.498 21.9551H106.44C106.433 22.3001 106.433 22.645 106.433 23.1227V27.0678C106.433 27.5367 106.433 27.8905 106.44 28.2355H105.498C105.505 27.8905 105.505 27.5455 105.505 27.059Z" fill="currentcolor"></path>
    <path d="M101.062 28.1862C99.5468 28.1862 98.959 27.6888 98.959 26.0157V25.7896C98.959 24.1165 99.5468 23.6191 101.016 23.6191C102.494 23.6191 103.044 24.1165 103.044 25.7896V26.174H99.8709C99.9086 27.1462 100.218 27.4024 101.069 27.4024C101.966 27.4024 102.154 27.1613 102.154 26.6111L103.044 26.6413C103.044 27.7491 102.599 28.1862 101.062 28.1862ZM101.024 24.3426C100.233 24.3426 99.9236 24.5763 99.8709 25.5033H102.102C102.072 24.5763 101.823 24.3426 101.024 24.3426Z" fill="currentcolor"></path>
    <path d="M97.3321 28.0991H95.983C95.6288 27.0289 94.8299 24.7378 94.4531 23.7129H95.4781L96.0584 25.6121C96.2167 26.1472 96.4051 26.7275 96.5633 27.2475H96.8196C96.9778 26.735 97.1587 26.1547 97.3321 25.6121L97.95 23.7129H98.8996C98.5077 24.7378 97.6938 27.0289 97.3321 28.0991Z" fill="currentcolor"></path>
    <path d="M93.1816 22.5059H94.0936V23.252H93.1816V22.5059ZM93.1892 27.0805V24.7291C93.1892 24.3071 93.1892 23.983 93.1816 23.7117H94.0936C94.086 23.983 94.086 24.3071 94.086 24.7216V27.073C94.086 27.495 94.086 27.7889 94.0936 28.0979H93.1816C93.1892 27.7965 93.1892 27.495 93.1892 27.0805Z" fill="currentcolor"></path>
    <path d="M90.5 25.1094V24.4839H89.8066V23.7076H90.5C90.5 23.3911 90.4925 22.4691 90.4925 22.2355L91.3968 22.2129C91.3893 22.4917 91.3893 23.3459 91.3893 23.7076H92.565V24.4839H91.3893V26.6921C91.3893 27.2196 91.4722 27.3327 92.1053 27.3327C92.2786 27.3327 92.369 27.3251 92.565 27.3176L92.5725 28.0938C92.3615 28.1164 92.1806 28.124 91.9545 28.124C90.7487 28.124 90.4925 27.8225 90.4925 26.8729C90.4925 26.4961 90.5 25.7877 90.5 25.1094Z" fill="currentcolor"></path>
    <path d="M87.086 28.1862C85.8425 28.1862 85.4355 27.7868 85.4355 26.7995C85.4355 25.7972 85.8651 25.3827 87.0936 25.3827C87.7869 25.3827 88.2466 25.5334 88.5104 25.8198V25.3224C88.5104 24.614 88.2843 24.3879 87.4402 24.3879C86.6263 24.3879 86.4831 24.5461 86.4831 25.036L85.624 25.0134C85.6089 24.0487 86.0761 23.6191 87.4553 23.6191C89.0003 23.6191 89.4148 24.0939 89.4148 25.1189C89.4148 25.7143 89.4073 25.9705 89.4073 26.6639C89.4073 27.1161 89.4073 27.5004 89.4148 28.0958H88.6009L88.5858 27.5532C88.3371 27.9451 87.8547 28.1862 87.086 28.1862ZM87.4327 27.4627C88.2994 27.4627 88.533 27.2668 88.533 26.7845V26.596C88.533 26.2343 88.2994 26.0383 87.4478 26.0383C86.5359 26.0383 86.355 26.2418 86.355 26.7769C86.355 27.2969 86.6188 27.4627 87.4327 27.4627Z" fill="currentcolor"></path>
    <path d="M82.9473 25.1094V24.4839H82.2539V23.7076H82.9473C82.9473 23.3911 82.9397 22.4691 82.9397 22.2355L83.8441 22.2129C83.8366 22.4917 83.8366 23.3459 83.8366 23.7076H85.0122V24.4839H83.8366V26.6921C83.8366 27.2196 83.9195 27.3327 84.5525 27.3327C84.7259 27.3327 84.8163 27.3251 85.0122 27.3176L85.0198 28.0938C84.8088 28.1164 84.6279 28.124 84.4018 28.124C83.196 28.124 82.9397 27.8225 82.9397 26.8729C82.9397 26.4961 82.9473 25.7877 82.9473 25.1094Z" fill="currentcolor"></path>
    <path d="M80.9121 22.5059H81.824V23.252H80.9121V22.5059ZM80.9196 27.0805V24.7291C80.9196 24.3071 80.9196 23.983 80.9121 23.7117H81.824C81.8165 23.983 81.8165 24.3071 81.8165 24.7216V27.073C81.8165 27.495 81.8165 27.7889 81.824 28.0979H80.9121C80.9196 27.7965 80.9196 27.495 80.9196 27.0805Z" fill="currentcolor"></path>
    <path d="M76.947 27.101V24.6516C76.947 24.2823 76.947 24.0186 76.9395 23.7096H77.7835L77.7986 24.4482C78.0398 23.8905 78.4769 23.6191 79.1175 23.6191C80.0294 23.6191 80.3233 23.9432 80.3233 24.9606C80.3233 25.1566 80.3233 25.3902 80.3158 25.5862L79.4642 25.6012V25.1641C79.4642 24.6064 79.3285 24.4406 78.7331 24.4406C78.1453 24.4406 77.8438 24.6667 77.8438 25.8876V27.1236C77.8438 27.523 77.8438 27.7717 77.8514 28.0958H76.9395C76.947 27.7642 76.947 27.5004 76.947 27.101Z" fill="currentcolor"></path>
    <path d="M74.1755 28.1862C72.6607 28.1862 72.0879 27.6888 72.0879 26.0157V25.7896C72.0879 24.1165 72.6607 23.6191 74.1755 23.6191C75.6979 23.6191 76.2706 24.1165 76.2706 25.7896V26.0157C76.2706 27.6888 75.6979 28.1862 74.1755 28.1862ZM74.1755 27.3798C75.0799 27.3798 75.3662 27.101 75.3662 25.9328V25.8725C75.3662 24.6969 75.0799 24.4255 74.1755 24.4255C73.2786 24.4255 72.9923 24.6969 72.9923 25.8725V25.9328C72.9923 27.101 73.2786 27.3798 74.1755 27.3798Z" fill="currentcolor"></path>
    <path d="M67.5427 27.0919V23.4744C67.5427 23.0524 67.5427 22.439 67.5352 22.1074H68.4546C68.4546 22.2431 68.4245 23.9115 68.4094 24.3788C68.6958 23.8211 69.1932 23.6176 69.9318 23.6176C70.9869 23.6176 71.4466 24.0321 71.4466 25.1475C71.4466 25.3736 71.439 25.66 71.439 26.2479V27.1221C71.439 27.4612 71.439 27.7325 71.4466 28.0943H70.5422C70.5497 27.7401 70.5497 27.5743 70.5497 27.1145V25.6675C70.5497 24.6652 70.301 24.4391 69.5173 24.4391C68.7335 24.4391 68.4395 24.6652 68.4395 25.8258V27.0919C68.4395 27.4763 68.4395 27.725 68.4471 28.0943H67.5352C67.5427 27.7325 67.5427 27.5064 67.5427 27.0919Z" fill="currentcolor"></path>
    <path d="M64.8477 25.1142V24.4887H64.1543V23.7124H64.8477C64.8477 23.3959 64.8401 23.1019 64.8401 22.8683L65.7445 22.8457C65.737 23.1246 65.737 23.3506 65.737 23.7124H66.9126V24.4887H65.737V26.6968C65.737 27.2244 65.8199 27.3374 66.4529 27.3374C66.6263 27.3374 66.7167 27.3299 66.9126 27.3224L66.9202 28.0986C66.7092 28.1212 66.5283 28.1288 66.3022 28.1288C65.0964 28.1288 64.8401 27.8273 64.8401 26.8777C64.8401 26.5009 64.8477 25.7925 64.8477 25.1142Z" fill="currentcolor"></path>
    <path d="M59.8728 25.3935V24.5796C59.8728 24.2857 59.8728 24.037 59.8652 23.7129H60.7696C60.7696 24.0068 60.7621 24.2178 60.7621 24.5645V26.1396C60.7621 27.1344 60.9882 27.3681 61.7644 27.3681C62.5407 27.3681 62.8346 27.1344 62.8346 25.9211V24.6851C62.8346 24.2857 62.8346 24.037 62.8271 23.7129H63.739C63.7314 24.0445 63.7314 24.3083 63.7314 24.7077V27.1571C63.7314 27.5188 63.7314 27.7826 63.739 28.0991H62.8949L62.8798 27.3681C62.6085 27.971 62.1036 28.1895 61.3499 28.1895C60.2948 28.1895 59.8652 27.775 59.8652 26.6596C59.8652 26.4336 59.8728 25.9738 59.8728 25.3935Z" fill="currentcolor"></path>
    <path d="M56.103 21.9551H57.6119C58.0106 23.2465 59.2302 27.0325 59.6523 28.2355H58.5813L58.1826 26.8998H55.4463L55.0241 28.2355H54C54.4222 27.0325 55.6887 23.2465 56.103 21.9551ZM55.9701 25.2191L55.7356 25.9798H57.9011L57.6666 25.2014C57.4321 24.4142 57.1897 23.6004 57.0021 22.9546H56.6581C56.4626 23.6004 56.2203 24.423 55.9701 25.2191Z" fill="currentcolor"></path>
    <path fill-rule="evenodd" clip-rule="evenodd" d="M9.152 5.55789L8.83108 5.57334C5.83115 5.71767 2.83149 5.28337 0 4.29474C1.47546 7.1358 5.3373 9.01137 8.518 9.30652C5.76 9.41053 0.832 14.4632 3.136 20.7789C3.80205 19.5787 4.65155 19.4646 5.38212 19.6995C6.42136 20.0337 6.35038 21.3717 5.74917 22.2725C4.81877 23.6666 4.00309 25.7447 5.97492 27.2004C6.06216 26.8773 6.24343 26.5657 6.4919 26.2717C8.31706 24.112 10.7203 26.6644 9.87028 29.3486L9.664 30H31.616C31.616 30 22.848 24.1263 17.344 20.5263C11.3403 16.5994 16.7134 12.1117 19.648 15.4737L21.6557 18.4025C22.4127 19.2697 23.515 19.7684 24.6749 19.7684H26.976V22.2316L29.696 19.7684L23.872 13.8947H30.9561C32.205 13.8947 33.3282 14.6451 33.792 15.7895L36.608 13.0737L34.4746 10.951C33.5029 9.98412 31.9314 9.94537 30.912 10.8632L25.8226 5.79192C24.861 4.83379 23.5512 4.29474 22.1847 4.29474H15.9311C12.532 4.29474 9.22889 3.18208 6.53924 1.13106L5.056 0C5.40915 1.36504 7.36 4.86316 9.152 5.55789ZM22.4818 6.18953L26.6174 10.2707C24.6422 11.1813 22.3865 9.72224 22.4445 7.57157L22.4818 6.18953Z" fill="currentcolor"></path>
    <path d="M29.824 16.8H37.7648C38.9753 16.8 40.0601 17.5378 40.491 18.6542H39.0311C38.333 18.6542 37.7671 19.2127 37.7671 19.9016C37.7671 20.5905 38.333 21.149 39.0311 21.149H42.2027C43.6612 21.149 44.8435 22.3298 44.8435 23.769C44.8435 24.9765 45.5626 26.0819 46.6795 26.575L48 27.1579H46.3529C44.8044 27.1579 43.3392 26.4658 42.368 25.2756H40.365C38.9857 25.2756 37.6647 24.7264 36.7013 23.7524L29.824 16.8Z" fill="currentcolor"></path>
</svg>